# AST/ASF file generated using VICON BodyLanguage
# -----------------------------------------------
:version 1.10
:name VICON
:units
  mass 1.0
  length 0.45
  angle deg
:documentation
   .ast/.asf automatically generated from VICON data using
   VICON BodyBuilder and BodyLanguage model FoxedUp or BRILLIANT.MOD
:root
   order TX TY TZ RX RY RZ
   axis XYZ
   position 0 0 0  
   orientation 0 0 0 
:bonedata
  begin
     id 1 
     name lhipjoint
     direction 0.711131 -0.61297 0.344326 
     length 2.29162 
     axis 0 0 0  XYZ
  end
  begin
     id 2 
     name lfemur
     direction 0.34202 -0.939693 0  
     length 6.71424  
     axis 0 0 20  XYZ
    dof rx ry rz
    limits (-160.0 20.0)
           (-70.0 70.0)
           (-60.0 70.0)
  end
  begin
     id 3 
     name ltibia
     direction 0.34202 -0.939693 0   
     length 6.7087   
     axis 0 0 20   XYZ
    dof rx
    limits (-10.0 170.0)
  end
  begin
     id 4 
     name lfoot
     direction 0.0230374 -0.0632947 0.997729   
     length 1.56743   
     axis -90 7.62852e-016 20   XYZ
    dof rx rz
    limits (-45.0 90.0)
           (-70.0 20.0)
  end
  begin
     id 5 
     name ltoes
     direction 1.53585e-011 -4.21885e-011 1   
     length 0.802914   
     axis -90 7.62852e-016 20   XYZ
    dof rx
    limits (-90.0 20.0)
  end
  begin
     id 6 
     name rhipjoint
     direction -0.733192 -0.592884 0.333043   
     length 2.36925  
     axis 0 0 0  XYZ 
  end
  begin
     id 7 
     name rfemur
     direction -0.34202 -0.939693 0   
     length 6.67027   
     axis 0 0 -20   XYZ
    dof rx ry rz
    limits (-160.0 20.0)
           (-70.0 70.0)
           (-70.0 60.0)
  end
  begin
     id 8 
     name rtibia
     direction -0.34202 -0.939693 0   
     length 6.6862   
     axis 0 0 -20   XYZ
    dof rx
    limits (-10.0 170.0)
 end
 begin
     id 9 
     name rfoot
     direction -0.0949739 -0.260939 0.960672   
     length 1.67698  
     axis -90 -7.62852e-016 -20   XYZ
    dof rx rz
    limits (-45.0 90.0)
           (-20.0 70.0)
  end
  begin
     id 10 
     name rtoes
     direction -1.5353e-011 -4.21868e-011 1   
     length 0.846298   
     axis -90 -7.62852e-016 -20   XYZ
    dof rx
    limits (-90.0 20.0)
  end
  begin
     id 11 
     name lowerback
     direction -0.0206828 0.999785 -0.00109866   
     length 2.04382   
     axis 0 0 0   XYZ
    dof rx ry rz
    limits (-20.0 45.0)
           (-30.0 30.0)
           (-30.0 30.0)
  end
  begin
     id 12 
     name upperback
     direction -0.0105003 0.999727 -0.0208904   
     length 2.04538   
     axis 0 0 0   XYZ
    dof rx ry rz
    limits (-20.0 45.0)
           (-30.0 30.0)
           (-30.0 30.0)
  end
  begin
     id 13 
     name thorax
     direction -0.000416255 0.999808 -0.0196023   
     length 2.0399   
     axis 0 0 0   XYZ
    dof rx ry rz
    limits (-20.0 45.0)
           (-30.0 30.0)
           (-30.0 30.0)
  end
  begin
     id 14 
     name lowerneck
     direction 0.0627861 0.989205 0.13241   
     length 1.46207   
     axis 0 0 0   XYZ
    dof rx ry rz
    limits (-20.0 45.0)
           (-30.0 30.0)
           (-30.0 30.0)
  end
  begin
     id 15 
     name upperneck
     direction 0.00627179 0.994526 0.104303   
     length 1.41419   
     axis 0 0 0   XYZ
    dof rx ry rz
    limits (-20.0 45.0)
           (-30.0 30.0)
           (-30.0 30.0)
  end
  begin
     id 16
     name head
     direction -0.00443838 0.999688 0.0245968  
     length 1.50718  
     axis 0 0 0   XYZ
    dof rx ry rz
    limits (-20.0 45.0)
           (-30.0 30.0)
           (-30.0 30.0)
  end
  begin
     id 17 
     name lclavicle
     direction 0.758742 0.650995 -0.0227258  
     length 2.86888  
     axis 0 0 0   XYZ
    dof ry rz
    limits (-20.0 10.0)
           (0.0 20.0)
  end
  begin
     id 18 
     name lhumerus
     direction 1 -4.48962e-011 1.06664e-027   
     length 4.65776   
     axis -180 -30 -90   XYZ
    dof rx ry rz
    limits (-60.0 90.0)
           (-90.0 90.0)
           (-90.0 90.0)
  end
  begin
     id 19
     name lradius
     direction 1 -4.48968e-011 1.40404e-026   
     length 3.55539   
     axis -180 -30 -90   XYZ
    dof rx
    limits (-10.0 170.0)
  end
  begin
     id 20
     name lwrist
     direction 1 -4.48976e-011 3.32647e-026   
     length 1.77769   
     axis -2.20186e-014 90 90   XYZ
    dof ry
    limits (-180.0 0.0)
 end
  begin
     id 21 
     name lhand
     direction 1 -4.48982e-011 6.65293e-026   
     length 0.707264   
     axis -4.24514e-014 90 90   XYZ
    dof rx rz
    limits (-90.0 90.0)
           (-45.0 45.0)
  end
  begin
     id 22 
     name lfingers
     direction 1 -4.48966e-011 1.33059e-025   
     length 0.570215   
     axis -8.49028e-014 90 90   XYZ
    dof rx
    limits (0.0 90.0)
  end
  begin
     id 23
     name lthumb
     direction 0.707107 -6.3493e-011 0.707107   
     length 0.818718   
     axis -90 45 2.85299e-015   XYZ
    dof rx rz
    limits (-45.0 45.0)
           (-45.0 45.0)
  end
  begin
     id 24 
     name rclavicle
     direction -0.870343 0.482028 -0.100759   
     length 3.2251  
     axis 0 0 0   XYZ 
    dof ry rz
    limits (-10.0 20.0)
           (-20.0 0.0)
  end
  begin
     id 25 
     name rhumerus
     direction -1 -4.48974e-011 -9.45849e-028  
     length 4.71925   
     axis -180 30 90   XYZ
    dof rx ry rz
    limits (-90.0 60.0)
           (-90.0 90.0)
           (-90.0 90.0)
  end
  begin
     id 26 
     name rradius
     direction -1 -4.48965e-011 1.17607e-026   
     length 3.5699   
     axis -180 30 90   XYZ
    dof rx
    limits (-10.0 170.0)
  end
  begin
     id 27 
     name rwrist
     direction -1 -4.48968e-011 3.32647e-026   
     length 1.78495   
     axis -2.20186e-014 -90 -90   XYZ
    dof ry
    limits (-180.0 0.0)
  end
  begin
     id 28
     name rhand
     direction -1 -4.48995e-011 6.65293e-026   
     length 0.507757   
     axis -4.24514e-014 -90 -90   XYZ
    dof rx rz
    limits (-90.0 90.0)
           (-45.0 45.0)
  end
  begin
     id 29
     name rfingers
     direction -1 -4.48864e-011 1.33059e-025   
     length 0.409367   
     axis -8.49028e-014 -90 -90   XYZ
    dof rx
    limits (0.0 90.0)
  end
  begin
     id 30
     name rthumb
     direction -0.707107 -6.3494e-011 0.707107   
     length 0.587771   
     axis -90 -45 -2.85299e-015   XYZ
    dof rx rz
    limits (-45.0 45.0)
           (-45.0 45.0)
  end
:hierarchy
  begin
    root lhipjoint rhipjoint lowerback
    lhipjoint lfemur
    lfemur ltibia
    ltibia lfoot
    lfoot ltoes
    rhipjoint rfemur
    rfemur rtibia
    rtibia rfoot
    rfoot rtoes
    lowerback upperback
    upperback thorax
    thorax lowerneck lclavicle rclavicle
    lowerneck upperneck
    upperneck head
    lclavicle lhumerus
    lhumerus lradius
    lradius lwrist
    lwrist lhand lthumb
    lhand lfingers
    rclavicle rhumerus
    rhumerus rradius
    rradius rwrist
    rwrist rhand rthumb
    rhand rfingers
  end

#!OML:ASF E:\Steps\Project 1\Capture day 1\Session 2\Subject.ASF
:FULLY-SPECIFIED
:DEGREES
91
root 8.8246 16.286 31.1385 -152.14 -1.58888 178.211
lowerback -30.4945 -1.60325 -7.05811
upperback -1.56357 -0.449476 0.286352
thorax 14.2676 -0.961555 3.8853
lowerneck -3.69595 -2.49032 -1.21333
upperneck 20.3281 -5.51129 3.59769
head 6.93612 -3.01052 0.905293
rclavicle -1.51573e-015 1.0138e-014
rhumerus -42.7852 -27.3572 -68.8482
rradius 29.3007
rwrist 1.68909
rhand -5.98619 -52.4898
rfingers 7.12502
rthumb 19.8456 -81.4966
lclavicle -1.51573e-015 1.0138e-014
lhumerus -30.8979 6.58282 80.1629
lradius 29.7264
lwrist -4.83498
lhand -21.706 -10.089
lfingers 7.12502
lthumb 4.69268 19.839
rfemur -23.6509 6.72207 19.9573
rtibia 6.38925
rfoot -20.1596 -12.3513
rtoes -36.8201
lfemur -25.886 -9.46545 -18.3402
ltibia 9.05415
lfoot -9.14993 3.8048
ltoes -44.0739
92
root 8.80331 16.2918 31.147 -152.039 -1.99597 177.985
lowerback -30.2896 -1.72588 -6.80672
upperback -1.61844 -0.705285 0.226872
thorax 14.1414 -1.05275 3.5854
lowerneck -3.80697 -2.42594 -1.2637
upperneck 20.3669 -5.40059 3.54335
head 6.96481 -2.96097 0.901922
rclavicle -3.23025e-016 2.87244e-014
rhumerus -42.8047 -27.5376 -68.6569
rradius 29.033
rwrist 1.94758
rhand -5.78975 -51.9491
rfingers 7.12502
rthumb 20.0345 -80.9362
lclavicle -3.23025e-016 2.87244e-014
lhumerus -31.0523 6.83587 80.0689
lradius 29.3693
lwrist -4.9943
lhand -21.0685 -10.0415
lfingers 7.12502
lthumb 5.30822 19.872
rfemur -23.6173 4.77881 20.1883
rtibia 6.33681
rfoot -20.2776 -10.9832
rtoes -36.9228
lfemur -26.0363 -9.59021 -18.8172
ltibia 9.16545
lfoot -9.01633 3.34928
ltoes -44.389
93
root 8.80866 16.2948 31.1454 -152.086 -2.06628 177.909
lowerback -30.1362 -1.80289 -6.81256
upperback -1.59916 -0.804499 0.218377
thorax 14.1062 -1.0928 3.54328
lowerneck -3.99632 -2.34442 -1.22178
upperneck 20.5858 -5.2867 3.40197
head 7.06134 -2.9136 0.851579
rclavicle -9.21864e-015 1.2921e-014
rhumerus -42.886 -27.6032 -68.5644
rradius 28.8641
rwrist 2.05583
rhand -5.83031 -51.3189
rfingers 7.12502
rthumb 19.9955 -80.3101
lclavicle -9.21864e-015 1.2921e-014
lhumerus -31.1064 7.03851 79.9186
lradius 28.9222
lwrist -5.25654
lhand -20.8219 -10.145
lfingers 7.12502
lthumb 5.5463 19.7624
rfemur -23.5173 4.38358 20.2347
rtibia 6.27411
rfoot -20.3133 -10.7229
rtoes -36.911
lfemur -26.0439 -9.56081 -18.8964
ltibia 9.28137
lfoot -8.97569 3.26166
ltoes -44.4087
94
root 8.84291 16.2911 31.1307 -152.17 -1.61538 178.099
lowerback -30.2031 -1.75882 -7.06212
upperback -1.54115 -0.662167 0.312121
thorax 14.1894 -1.04914 3.83654
lowerneck -4.16581 -2.39877 -1.07823
upperneck 20.8458 -5.35695 3.11839
head 7.16692 -2.96146 0.724118
rclavicle -7.82715e-015 7.55382e-015
rhumerus -43.0343 -27.5012 -68.5574
rradius 28.856
rwrist 1.95636
rhand -5.8701 -51.1907
rfingers 7.12502
rthumb 19.9572 -80.1859
lclavicle -7.82715e-015 7.55382e-015
lhumerus -31.1722 7.213 79.8035
lradius 28.4813
lwrist -5.47797
lhand -21.0833 -10.2924
lfingers 7.12502
lthumb 5.29396 19.6215
rfemur -23.6359 5.08026 20.3142
rtibia 6.46831
rfoot -20.3244 -10.9344
rtoes -36.9238
lfemur -25.9468 -9.29495 -18.4587
ltibia 9.24907
lfoot -8.98848 3.70088
ltoes -44.37
95
root 8.85106 16.2907 31.1288 -151.972 -1.32307 178.071
lowerback -30.4014 -1.70177 -7.15289
upperback -1.54918 -0.547594 0.271483
thorax 14.2532 -1.00959 3.8824
lowerneck -4.67982 -2.29248 -1.22226
upperneck 21.0771 -5.29115 3.57142
head 7.34838 -2.8919 0.887018
rclavicle -1.06847e-015 -5.1684e-015
rhumerus -43.1293 -27.5438 -68.5337
rradius 28.814
rwrist 1.90686
rhand -5.74073 -51.4382
rfingers 7.12502
rthumb 20.0816 -80.4204
lclavicle -1.06847e-015 -5.1684e-015
lhumerus -31.219 7.21357 79.7734
lradius 28.1036
lwrist -5.48543
lhand -21.5358 -10.4099
lfingers 7.12502
lthumb 4.85698 19.5144
rfemur -23.9249 5.82484 20.0816
rtibia 6.54477
rfoot -20.218 -11.4308
rtoes -37.0988
lfemur -26.1337 -9.36788 -18.4383
ltibia 9.23417
lfoot -8.96879 4.08706
ltoes -44.4778
96
root 8.85559 16.2894 31.1217 -151.905 -1.0671 178.04
lowerback -30.5085 -1.6113 -7.2096
upperback -1.50944 -0.390981 0.211461
thorax 14.3271 -0.945356 3.90856
lowerneck -4.42462 -2.40616 -0.950364
upperneck 20.6769 -5.35791 3.27268
head 7.15926 -2.92175 0.750333
rclavicle 8.4732e-015 7.15625e-015
rhumerus -43.2266 -27.8728 -68.3738
rradius 28.6377
rwrist 2.1029
rhand -5.70836 -51.8692
rfingers 7.12502
rthumb 20.1127 -80.8481
lclavicle 8.4732e-015 7.15625e-015
lhumerus -31.2713 7.1568 79.7902
lradius 27.817
lwrist -5.59027
lhand -21.5701 -10.3578
lfingers 7.12502
lthumb 4.82391 19.5673
rfemur -24.0356 5.6737 20.0497
rtibia 6.59165
rfoot -20.1936 -11.0521
rtoes -37.4001
lfemur -26.0985 -9.66249 -18.424
ltibia 9.09426
lfoot -8.91193 4.77627
ltoes -45.5412
97
root 8.85928 16.287 31.1175 -151.872 -1.0373 178.067
lowerback -30.4682 -1.54987 -7.13765
upperback -1.52474 -0.334122 0.163371
thorax 14.2844 -0.913045 3.84029
lowerneck -4.21505 -2.43789 -0.885562
upperneck 20.3854 -5.38925 3.35779
head 7.02891 -2.92422 0.772552
rclavicle -7.60351e-015 -4.37326e-015
rhumerus -43.454 -28.2265 -68.184
rradius 28.4726
rwrist 2.33691
rhand -5.90906 -52.1713
rfingers 7.12502
rthumb 19.9198 -81.1704
lclavicle -7.60351e-015 -4.37326e-015
lhumerus -31.3971 7.22611 79.6954
lradius 27.5239
lwrist -5.99012
lhand -21.1932 -10.2164
lfingers 7.12502
lthumb 5.18784 19.7001
rfemur -24.0368 5.45837 20.1421
rtibia 6.54865
rfoot -20.2077 -10.7969
rtoes -37.4107
lfemur -26.0865 -10.0039 -18.3082
ltibia 9.00236
lfoot -8.82737 5.3167
ltoes -46.7643
98
root 8.86251 16.2864 31.1102 -151.873 -1.07367 178.197
lowerback -30.4209 -1.48818 -6.91797
upperback -1.54624 -0.332247 0.146569
thorax 14.2401 -0.89628 3.70475
lowerneck -4.13726 -2.47153 -0.582983
upperneck 20.285 -5.38746 3.03014
head 6.96625 -2.92578 0.620252
rclavicle 4.74598e-015 7.55382e-015
rhumerus -43.6762 -28.3009 -68.135
rradius 28.4313
rwrist 2.2651
rhand -6.0113 -52.0547
rfingers 7.12502
rthumb 19.8215 -81.064
lclavicle 4.74598e-015 7.55382e-015
lhumerus -31.5532 7.26327 79.5538
lradius 27.1577
lwrist -6.29211
lhand -21.0071 -10.2391
lfingers 7.12502
lthumb 5.36745 19.6729
rfemur -23.9897 5.30072 20.3595
rtibia 6.50606
rfoot -20.2256 -10.6731
rtoes -37.3281
lfemur -26.0571 -10.1192 -18.0913
ltibia 8.97314
lfoot -8.85961 5.4335
ltoes -46.3669
99
root 8.8685 16.2892 31.1073 -151.856 -1.12631 178.261
lowerback -30.2944 -1.4635 -6.8212
upperback -1.60847 -0.351373 0.154982
thorax 14.1144 -0.895381 3.65525
lowerneck -3.8667 -2.581 -0.657661
upperneck 20.0511 -5.53092 3.12125
head 6.85033 -2.99743 0.659948
rclavicle -8.59744e-015 -2.54444e-014
rhumerus -43.886 -28.1119 -68.1518
rradius 28.4854
rwrist 1.88457
rhand -5.97697 -51.8342
rfingers 7.12502
rthumb 19.8545 -80.8401
lclavicle -8.59744e-015 -2.54444e-014
lhumerus -31.7252 7.33793 79.4824
lradius 26.7447
lwrist -6.54759
lhand -20.9611 -10.3328
lfingers 7.12502
lthumb 5.41192 19.5781
rfemur -23.9743 5.11824 20.5566
rtibia 6.49011
rfoot -20.2697 -10.5173
rtoes -37.4108
lfemur -26.1191 -9.85372 -18.0402
ltibia 9.11113
lfoot -9.00072 5.08525
ltoes -45.5221
100
root 8.87003 16.2915 31.1012 -151.88 -1.10993 178.285
lowerback -30.1893 -1.41551 -6.73595
upperback -1.66176 -0.333 0.159984
thorax 14.0044 -0.879114 3.62289
lowerneck -3.8216 -2.45345 -1.08677
upperneck 19.9093 -5.43235 3.83223
head 6.82427 -2.92641 0.96838
rclavicle 3.75206e-015 1.0138e-014
rhumerus -44.1555 -28.0051 -68.0099
rradius 28.4873
rwrist 1.66125
rhand -5.97473 -51.7149
rfingers 7.12502
rthumb 19.8566 -80.7205
lclavicle 3.75206e-015 1.0138e-014
lhumerus -31.8989 7.45848 79.4954
lradius 26.3252
lwrist -6.7499
lhand -20.8772 -10.3949
lfingers 7.12502
lthumb 5.49287 19.5139
rfemur -23.889 5.27584 20.5496
rtibia 6.41072
rfoot -20.2531 -10.5962
rtoes -37.2802
lfemur -26.0793 -9.87092 -18.0191
ltibia 9.143
lfoot -9.01792 5.13654
ltoes -45.6076
101
root 8.87406 16.2925 31.0944 -151.837 -1.11518 178.194
lowerback -30.1855 -1.45918 -6.80237
upperback -1.67861 -0.374076 0.180009
thorax 13.9872 -0.902276 3.66406
lowerneck -3.81359 -2.42353 -1.25744
upperneck 19.8801 -5.40751 4.02252
head 6.82184 -2.91232 1.05997
rclavicle -5.51627e-015 1.61016e-014
rhumerus -44.3634 -28.0722 -67.7463
rradius 28.3985
rwrist 1.74927
rhand -5.8964 -51.6334
rfingers 7.12502
rthumb 19.9319 -80.6313
lclavicle -5.51627e-015 1.61016e-014
lhumerus -32.0554 7.4377 79.5907
lradius 26.0643
lwrist -6.72135
lhand -20.793 -10.2689
lfingers 7.12502
lthumb 5.57422 19.6378
rfemur -23.8695 5.47383 20.3982
rtibia 6.33742
rfoot -20.1791 -10.8555
rtoes -37.2413
lfemur -26.1149 -9.93209 -18.1028
ltibia 9.1685
lfoot -9.01265 5.14952
ltoes -45.8858
